<svg width="24" height="24" viewBox="0 0 24 24" fill="none" xmlns="http://www.w3.org/2000/svg">
<path d="M5 19C4.44772 19 4 19.4477 4 20C4 20.5523 4.44772 21 5 21H19C19.5523 21 20 20.5523 20 20C20 19.4477 19.5523 19 19 19H5Z" fill="white"/>
<path d="M6.0523 6.47334L5.66212 6.08155C5.27194 5.68977 4.64166 5.69982 4.26148 6.08155L4.25148 6.0916C3.8613 6.48338 3.8613 7.11626 4.25148 7.49799L4.64166 7.88977C5.03183 8.28155 5.65211 8.28155 6.04229 7.88977L6.0523 7.87973C6.44247 7.49799 6.44247 6.85507 6.0523 6.47334ZM3.01091 12.8624H1.99045C1.4402 12.8624 1 13.3044 1 13.8569V13.8669C1 14.4195 1.4402 14.8615 1.99045 14.8615H3.00091C3.56116 14.8715 4.00136 14.4295 4.00136 13.877V13.8669C4.00136 13.3044 3.56116 12.8624 3.01091 12.8624ZM12.015 2.86694H12.005C11.4447 2.86694 11.0045 3.30895 11.0045 3.86146V4.82585C11.0045 5.37836 11.4447 5.82037 11.995 5.82037H12.005C12.5653 5.83041 13.0055 5.3884 13.0055 4.83589V3.86146C13.0055 3.30895 12.5653 2.86694 12.015 2.86694ZM19.7585 6.0916C19.3684 5.69982 18.7381 5.69982 18.3479 6.08155L17.9577 6.47334C17.5675 6.86512 17.5675 7.49799 17.9577 7.87973L17.9677 7.88977C18.3579 8.28155 18.9882 8.28155 19.3684 7.88977L19.7585 7.49799C20.1487 7.10621 20.1487 6.48338 19.7585 6.0916ZM20.0086 13.8569V13.8669C20.0086 14.4195 20.4488 14.8615 20.9991 14.8615H22.0096C22.5598 14.8615 23 14.4195 23 13.8669V13.8569C23 13.3044 22.5598 12.8624 22.0096 12.8624H20.9991C20.4488 12.8624 20.0086 13.3044 20.0086 13.8569ZM12.005 7.83955C8.6935 7.83955 6.00227 10.5418 6.00227 13.8669C6.00227 17.1921 8.78159 16.5845 12.015 16.5845C15.5555 16.5845 18.0077 17.1921 18.0077 13.8669C18.0077 10.5418 15.3165 7.83955 12.005 7.83955Z" fill="white"/>
</svg>
