<svg width="24" height="24" viewBox="0 0 24 24" fill="none" xmlns="http://www.w3.org/2000/svg">
<g clip-path="url(#clip0_3794_2044)">
<path d="M5 21C4.44772 21 4 21.4477 4 22C4 22.5523 4.44772 23 5 23H19C19.5523 23 20 22.5523 20 22C20 21.4477 19.5523 21 19 21H5Z" fill="white"/>
<path d="M6.0523 11.9342L5.66212 11.5424C5.27194 11.1506 4.64166 11.1607 4.26148 11.5424L4.25148 11.5524C3.8613 11.9442 3.8613 12.5771 4.25148 12.9588L4.64166 13.3506C5.03183 13.7424 5.65211 13.7424 6.04229 13.3506L6.0523 13.3406C6.44247 12.9588 6.44247 12.3159 6.0523 11.9342ZM3.01091 18.3232H1.99045C1.4402 18.3232 1 18.7652 1 19.3177V19.3278C1 19.8803 1.4402 20.3223 1.99045 20.3223H3.00091C3.56116 20.3324 4.00136 19.8903 4.00136 19.3378V19.3278C4.00136 18.7652 3.56116 18.3232 3.01091 18.3232ZM19.7585 11.5524C19.3684 11.1607 18.7381 11.1607 18.3479 11.5424L17.9577 11.9342C17.5675 12.326 17.5675 12.9588 17.9577 13.3406L17.9677 13.3506C18.3579 13.7424 18.9882 13.7424 19.3684 13.3506L19.7585 12.9588C20.1487 12.5671 20.1487 11.9442 19.7585 11.5524ZM20.0086 19.3177V19.3278C20.0086 19.8803 20.4488 20.3223 20.9991 20.3223H22.0096C22.5598 20.3223 23 19.8803 23 19.3278V19.3177C23 18.7652 22.5598 18.3232 22.0096 18.3232H20.9991C20.4488 18.3232 20.0086 18.7652 20.0086 19.3177Z" fill="white"/>
<path d="M9.33317 8.58565L11.9998 11.2523L14.6665 8.58565M11.9998 11.2523L11.9998 3.11011" stroke="white" stroke-linecap="round" stroke-linejoin="round"/>
<path d="M18.4706 19.7934C18.4706 18.9436 18.3032 18.1022 17.978 17.3171C17.6528 16.532 17.1762 15.8187 16.5753 15.2178C15.9744 14.6169 15.2611 14.1403 14.476 13.8151C13.6909 13.4899 12.8495 13.3225 11.9997 13.3225C11.1499 13.3225 10.3085 13.4899 9.52339 13.8151C8.73831 14.1403 8.02496 14.6169 7.42409 15.2178C6.82321 15.8187 6.34657 16.532 6.02138 17.3171C5.69618 18.1022 5.52881 18.9436 5.52881 19.7934L11.9997 19.7934H18.4706Z" fill="white"/>
</g>
<defs>
<clipPath id="clip0_3794_2044">
<rect width="24" height="24" fill="white"/>
</clipPath>
</defs>
</svg>
