<svg width="18" height="18" viewBox="0 0 18 18" fill="none" xmlns="http://www.w3.org/2000/svg">
<rect width="18" height="18" rx="9" fill="white"/>
<g clip-path="url(#clip0_8567_1358)">
<path d="M5.53049 4.6871L5.30288 4.45856C5.07528 4.23003 4.70761 4.23589 4.48584 4.45856L4.48001 4.46442C4.25241 4.69296 4.25241 5.06214 4.48001 5.28482L4.70761 5.51336C4.93522 5.7419 5.29705 5.7419 5.52465 5.51336L5.53049 5.5075C5.75809 5.28482 5.75809 4.90978 5.53049 4.6871ZM3.75635 8.41404H3.16108C2.8401 8.41404 2.58331 8.67188 2.58331 8.99418V9.00004C2.58331 9.32234 2.8401 9.58018 3.16108 9.58018H3.75051C4.07733 9.58604 4.33411 9.3282 4.33411 9.0059V9.00004C4.33411 8.67188 4.07733 8.41404 3.75635 8.41404ZM9.00873 2.58337H9.0029C8.67608 2.58337 8.4193 2.84121 8.4193 3.16351V3.72607C8.4193 4.04837 8.67608 4.30621 8.99706 4.30621H9.0029C9.32971 4.31207 9.5865 4.05423 9.5865 3.73193V3.16351C9.5865 2.84121 9.32971 2.58337 9.00873 2.58337ZM13.5258 4.46442C13.2982 4.23589 12.9305 4.23589 12.7029 4.45856L12.4753 4.6871C12.2477 4.91564 12.2477 5.28482 12.4753 5.5075L12.4811 5.51336C12.7087 5.7419 13.0764 5.7419 13.2982 5.51336L13.5258 5.28482C13.7534 5.05628 13.7534 4.69296 13.5258 4.46442ZM12.4695 13.313L12.6971 13.5415C12.9247 13.7701 13.2923 13.7701 13.52 13.5415C13.7476 13.313 13.7476 12.9438 13.52 12.7153L13.2923 12.4867C13.0647 12.2582 12.6971 12.264 12.4753 12.4867C12.2419 12.7211 12.2419 13.0844 12.4695 13.313ZM13.6717 8.99418V9.00004C13.6717 9.32234 13.9285 9.58018 14.2494 9.58018H14.8389C15.1599 9.58018 15.4166 9.32234 15.4166 9.00004V8.99418C15.4166 8.67188 15.1599 8.41404 14.8389 8.41404H14.2494C13.9285 8.41404 13.6717 8.67188 13.6717 8.99418ZM9.0029 5.48406C7.07119 5.48406 5.50131 7.06039 5.50131 9.00004C5.50131 10.9397 7.07119 12.516 9.0029 12.516C10.9346 12.516 12.5045 10.9397 12.5045 9.00004C12.5045 7.06039 10.9346 5.48406 9.0029 5.48406ZM8.99706 15.4167H9.0029C9.32388 15.4167 9.58066 15.1589 9.58066 14.8366V14.274C9.58066 13.9517 9.32388 13.6939 9.0029 13.6939H8.99706C8.67608 13.6939 8.4193 13.9517 8.4193 14.274V14.8366C8.4193 15.1589 8.67608 15.4167 8.99706 15.4167ZM4.48001 13.5357C4.70761 13.7642 5.07528 13.7642 5.30288 13.5357L5.53049 13.3071C5.75809 13.0786 5.75225 12.7094 5.53049 12.4867L5.52465 12.4809C5.29705 12.2523 4.92938 12.2523 4.70178 12.4809L4.47417 12.7094C4.2524 12.9438 4.25241 13.3071 4.48001 13.5357Z" fill="#464649"/>
</g>
<defs>
<clipPath id="clip0_8567_1358">
<rect width="14" height="14" fill="white" transform="translate(2 2)"/>
</clipPath>
</defs>
</svg>
