<svg width="18" height="18" viewBox="0 0 18 18" fill="none" xmlns="http://www.w3.org/2000/svg">
<rect width="18" height="18" rx="9" fill="#464649"/>
<path d="M12.3541 4.38587L10.8783 5.51754L11.4091 7.30254L9.87498 6.24671L8.34081 7.30254L8.87165 5.51754L7.39581 4.38587L9.25665 4.33337L9.87498 2.58337L10.4933 4.33337L12.3541 4.38587ZM14.3958 8.41671L13.4391 9.14587L13.7833 10.3009L12.7916 9.61837L11.8 10.3009L12.1441 9.14587L11.1875 8.41671L12.3891 8.38754L12.7916 7.25004L13.1941 8.38754L14.3958 8.41671ZM13.0658 11.3042C13.55 11.2575 14.0691 11.9459 13.76 12.3834C13.5733 12.6459 13.375 12.8909 13.13 13.1242C10.8491 15.4167 7.15665 15.4167 4.88165 13.1242C2.60081 10.8492 2.60081 7.15087 4.88165 4.87587C5.11498 4.64254 5.35998 4.43254 5.62248 4.24587C6.05998 3.93671 6.74831 4.45587 6.70165 4.94004C6.54415 6.60837 7.10415 8.34087 8.38748 9.61837C9.66498 10.9017 11.3916 11.4617 13.0658 11.3042Z" fill="white"/>
</svg>
